<svg id="Layer_1" data-name="Layer 1" xmlns="http://www.w3.org/2000/svg" viewBox="0 0 1564.19 826.39"><defs><style>.cls-1{fill:#00738e;}.cls-2{fill:#e04332;}.cls-3{fill:#fff;}</style></defs><path class="cls-1" d="M1074.19,350.9V750H995V681.69H880.74v69.88c-25.8,0-49.82.33-73.8-.45-2.78-.09-7.74-6.37-7.68-9.71,1.17-72.12-7.86-145,12.69-215.81,29.87-102.92,103.28-154,205.68-169.15C1035.4,353.82,1053.43,352.89,1074.19,350.9ZM994.36,602.06V446.67C924.66,460.27,872.9,534,883.1,602.06Z" transform="translate(-177.9 -126.81)"/><path class="cls-1" d="M701.9,750c-14.53-95.72-38.65-121.51-106.21-111.78V750.63H517.12V352.14c54.35,1.76,109.46-7,162.86,10.79,49.78,16.58,84.2,49.41,94,102.14,10,53.63-5,99.27-53.77,132.88,50.69,38.52,63.31,91.18,59,152.08ZM597.32,428.48V561.42C632.45,558.94,667,559,688,526.83c14-21.52,13.28-46.12-2-66.72C664.29,430.82,631.73,428,597.32,428.48Z" transform="translate(-177.9 -126.81)"/><path class="cls-1" d="M723.88,132.91C603,137.44,501.21,182.35,423.25,276.08c-51.37,61.77-79.3,133.85-85.32,213.63-11.42,151.37,71.28,323.05,260.52,390.38C493.35,879.16,360.83,783.2,309,664.81,246.71,522.32,262.54,386,360.6,265,453.78,150.16,578.36,110.19,723.88,132.91Z" transform="translate(-177.9 -126.81)"/><path class="cls-1" d="M1685.53,360.91l-.23,0a26.36,26.36,0,0,0-22.4,26.11V606.53h-115V367.24h-45.37a35.37,35.37,0,0,0-35.36,35.37V610c-2,35.19-.44,70.61,0,106v29.91c-.05,3.34,4.91,9.62,7.69,9.71,24,.78,48,.45,73.8.45V686.16H1662.9v68.28h79.2V355.37C1721.33,357.36,1703.31,358.29,1685.53,360.91Z" transform="translate(-177.9 -126.81)"/><path class="cls-2" d="M413.1,155.69c-180.65,139.84-211,357.64-134.25,525.73C346.39,829.23,535.08,972.36,777.78,912c-199.34,98.95-462.34,15.62-561.91-205.52C115.33,483.15,225.94,240.83,413.1,155.69Z" transform="translate(-177.9 -126.81)"/><path class="cls-2" d="M949.3,276.13C867.5,224,784,202.19,692.8,217.6c-68.22,11.52-128.48,40.52-179,87.89-59.46,55.72-94.85,124.75-106.45,205.27-11.47,79.61,5.45,154.23,47.9,229C346.43,626,330.11,420.5,459.82,282.7,599.82,134,823.22,147,949.3,276.13Z" transform="translate(-177.9 -126.81)"/><path class="cls-2" d="M1358.91,512.37a22.31,22.31,0,0,1-3.29-.85,29.48,29.48,0,0,0-7.23-1.27c-6.55-.39-13.12.21-19.68.24a4.07,4.07,0,0,1-2.43-.72h-79.43c-16,0-29-8.85-29-19.78s13-19.79,29-19.79h89.36a149.11,149.11,0,0,0,21.69-7.89,107.21,107.21,0,0,0,38.18-79.49v-14H1271.14a132.62,132.62,0,0,0-37-.14C1174,377,1112.4,429.3,1109.54,489.19c-.8,16.88,3.34,29.92,5.63,37.3A126,126,0,0,0,1181.79,603l-.12.74a52.89,52.89,0,0,1,9.24,2.8c3,1.14,6.19,1.8,9.3,2.67a429.31,429.31,0,0,0,47.94,2.58,431.26,431.26,0,0,0,46.32-2.58c16.53-2.21,29,9.74,29,19.79,0,10.93-13,19.79-29,19.79l-151.08-3.22-7.76-.51H1114.7v14a92.61,92.61,0,0,0,92.61,92.61H1307v0a125.64,125.64,0,0,0,51.89-239.25Z" transform="translate(-177.9 -126.81)"/><path class="cls-3" d="M-772.57,446.29" transform="translate(-177.9 -126.81)"/></svg>